PathFileType	4	(X/Y/Z)	TVC_32_Cal_03_0_static_RCNL2025.trc
DataRate	CameraRate	NumFrames	NumMarkers	Units	OrigDataRate	OrigDataStartFrame	OrigNumFrames
100	100	5	27	mm	100	50	197
Frame#	Time	R_Shoulder			L_Shoulder			C7			J_Notch			R_Elbow			L_Elbow			R_Wrist			L_Wrist			R_Asis			L_Asis			R_Psis			L_Psis			Sacral			Thoracic			Sternum			R_Thigh_Lateral			R_Knee_Lateral			R_Shank_Lateral			R_Ankle_Lateral			R_Heel			R_Toe			L_Thigh_Lateral			L_Knee_Lateral			L_Shank_Lateral			L_Ankle_Lateral			L_Heel			L_Toe		
		X1	Y1	Z1	X2	Y2	Z2	X3	Y3	Z3	X4	Y4	Z4	X5	Y5	Z5	X6	Y6	Z6	X7	Y7	Z7	X8	Y8	Z8	X9	Y9	Z9	X10	Y10	Z10	X11	Y11	Z11	X12	Y12	Z12	X13	Y13	Z13	X14	Y14	Z14	X15	Y15	Z15	X16	Y16	Z16	X17	Y17	Z17	X18	Y18	Z18	X19	Y19	Z19	X20	Y20	Z20	X21	Y21	Z21	X22	Y22	Z22	X23	Y23	Z23	X24	Y24	Z24	X25	Y25	Z25	X26	Y26	Z26	X27	Y27	Z27
50	0.49000000	-157.031128	1473.297852	-36.456532	-164.284042	1451.433594	-415.751862	-219.524506	1517.646851	-223.971603	-56.066479	1420.193481	-215.916626	-190.773056	1157.359375	134.090790	-174.138428	1117.383057	-513.705566	-112.156509	894.613983	101.822495	-87.243088	859.084869	-477.032303	-93.727554	1012.392029	-66.075890	-96.141151	1014.888123	-347.852631	-287.889160	1027.121216	-154.682297	-285.095795	1024.332397	-255.833755	-286.492477	1025.726807	-205.258026	-281.998901	1253.283691	-212.548325	-33.146637	1274.709473	-216.681259	-194.248032	638.665344	-2.040793	-178.322189	501.862000	-48.094971	-227.897247	303.421509	4.209929	-240.356415	82.318283	-60.933365	-293.854706	53.785248	-125.915482	-96.951248	41.748322	-55.762741	-162.490005	680.432373	-434.739685	-186.270905	503.230286	-398.198334	-205.571060	360.915833	-462.717163	-198.704041	76.746117	-425.296417	-265.657990	60.815807	-376.992249	-57.944393	40.958626	-404.400879
51	0.50000000	-157.230621	1473.371094	-36.216484	-164.414230	1451.428589	-415.739868	-219.642914	1517.674072	-223.964584	-56.182457	1420.202515	-215.734192	-190.753769	1157.360229	134.094116	-174.262527	1117.472046	-513.902039	-112.154850	894.583649	101.770489	-87.196812	859.186401	-477.043610	-93.711662	1012.386047	-66.085030	-96.242256	1014.883972	-347.871979	-287.855988	1027.174927	-154.600647	-285.128601	1024.394409	-255.834595	-286.492294	1025.784668	-205.217621	-282.006470	1253.294678	-212.571945	-33.053440	1274.838379	-216.798920	-194.254379	638.681274	-2.121676	-178.318542	501.868835	-48.084400	-228.256577	302.749481	3.771477	-240.326904	82.359978	-60.932732	-293.853485	53.786591	-125.981361	-96.979546	41.641987	-55.841690	-162.483917	680.453491	-434.750000	-186.310974	503.247253	-398.217987	-205.626648	360.945312	-462.818024	-198.761902	76.640427	-425.205963	-265.543884	60.958202	-376.919769	-57.981689	40.974037	-404.366394
52	0.51000000	-157.202393	1473.270386	-36.216206	-164.408218	1451.471069	-415.695251	-219.608490	1517.658447	-223.917892	-56.181908	1420.143677	-215.723145	-190.773285	1157.295532	134.123215	-174.280777	1117.539185	-513.921814	-112.150883	894.546997	101.737278	-87.183121	859.221588	-477.046265	-93.711266	1012.385437	-66.095833	-96.149734	1014.881775	-347.852020	-287.826324	1027.132935	-154.619705	-285.095001	1024.462280	-255.687225	-286.460663	1025.797607	-205.153465	-282.005219	1253.297485	-212.550095	-33.135330	1274.806152	-216.669128	-194.328323	638.560242	-2.084909	-178.295593	501.856750	-48.045387	-228.089951	303.269958	4.110265	-240.380447	82.245445	-60.944908	-293.858154	53.779400	-125.973503	-96.945160	41.730522	-55.772800	-162.500641	680.403625	-434.724792	-186.280106	503.212463	-398.201599	-205.599106	360.959869	-462.826569	-198.746307	76.656174	-425.228912	-265.579712	60.872974	-377.038940	-57.948185	40.926723	-404.431732
53	0.52000000	-157.165237	1473.269775	-36.135624	-164.283844	1451.446777	-414.926300	-219.644638	1517.629272	-223.773071	-56.153492	1420.129272	-215.472275	-190.651825	1157.215576	134.054108	-174.185516	1117.444824	-513.587646	-112.166531	894.442474	101.678734	-87.204597	859.223114	-477.049240	-93.713997	1012.386597	-66.095306	-96.215584	1014.870117	-347.895844	-287.743317	1027.115356	-154.631912	-285.121643	1024.475830	-255.644180	-286.432480	1025.795593	-205.138046	-281.907867	1253.240845	-212.493668	-33.200905	1274.847656	-216.737381	-194.276291	638.634766	-2.017787	-178.278046	501.849304	-48.050488	-227.921356	303.332855	4.184373	-240.393112	82.296463	-60.885769	-293.847168	53.805508	-125.895836	-96.948097	41.743687	-55.780025	-162.554581	680.369751	-434.771179	-186.319580	503.242462	-398.257446	-205.620972	360.909882	-462.754974	-198.770523	76.711037	-425.225525	-265.530792	60.848873	-377.172211	-57.978096	40.883282	-404.385986
54	0.53000000	-157.089462	1473.195557	-36.131702	-164.678482	1451.597534	-415.311676	-219.694321	1517.672485	-223.691177	-56.236595	1420.166016	-215.446991	-190.589233	1157.181274	134.019928	-174.150543	1117.479370	-513.533081	-112.162857	894.458252	101.657974	-87.119343	859.291473	-477.040619	-93.542679	1012.359680	-66.110924	-96.125343	1014.867920	-347.904083	-287.794556	1027.166992	-154.491592	-285.014771	1024.424438	-255.750656	-286.404663	1025.795715	-205.121124	-282.026672	1253.244019	-212.383438	-33.080246	1274.885986	-216.787033	-194.386932	638.726135	-2.037068	-178.256058	501.793823	-48.062408	-227.824890	302.916901	3.708531	-240.360992	82.322563	-60.914047	-293.878815	53.823776	-125.888580	-96.964348	41.725941	-55.777420	-162.624039	680.351257	-434.720734	-186.289658	503.231262	-398.186005	-205.654953	360.905060	-462.764557	-198.754761	76.815125	-425.325439	-265.632660	60.857586	-376.960907	-57.962681	40.916847	-404.408752
